<?xml version="1.0" encoding="UTF-8"?>
<svg id="Layer_2" data-name="Layer 2" xmlns="http://www.w3.org/2000/svg" viewBox="0 0 300.57 542.89">
  <defs>
    <style>
      .cls-1 {
        fill: #ffe1b9;
      }

      .cls-2 {
        fill: #fafcfc;
      }

      .cls-3 {
        fill: #ff92b1;
      }
    </style>
  </defs>
  <g id="Layer_1-2" data-name="Layer 1">
    <g>
      <path d="M226.28,108.84c10.56-.98,1.86,10.07,2.02,12.07.08.93,2.91,1.52,2.32,4.91-.27,1.54-2.39,2.78-2.74,4.02-.24.85.37,1.86.29,2.79-.31,3.75-4.42,5.39-6.22,8.36,7.15,1.71,14.2,4.38,20.36,8.4,4.53,2.97,8.84,4.99,5,10.76,10.64,6.02,21.38,16.51,27.72,27.01,2.33,3.86,6.37,8.97,1.35,12.26,3.24,2.45,12.85,12.61,11.65,16.57-.46,1.52-3.28,1.82-2.98,3.18.19.83,6.96,6.56,7.74,8.97,1.11,3.41-.93,4.69-.85,5.8.06.79,2.72,5.61,3.27,7.24,8.89,26.23,7.81,59.2-11.43,80.66-2.39,2.66-4.32,3.34-6.27,6.72-3.06,5.29-3.36,18.23-11.34,9.7-8.2,7.04-17.17,13.78-27.52,17.31-.52.69,12.31,8.48,13.63,10.78,1.8,3.13-1.06,5.3-.64,5.9,2.95,1.5,10.96,5.13,10.52,8.92-.12,1.02-1.2,2.32-1.18,2.54.04.5,5.77,4.52,7.08,7.06,2.06,4,1.1,13.65,1.57,14.2.12.14,2.23.3,3.36,1.28,3.19,2.79,1.21,9.52-2.8,10.54-.59.87,3.63,4.4,4.48,5.71,3.08,4.78,1.21,7.97-4.48,7.88-.01,4.53.4,9.95-5.75,8.53-1.72-.4-2.83-2.36-4.76-2.34-.34,3.45-2.18,7.85-6.15,5.23-3.12-2.06-4.92-12.25-8.43-15.7-1.5-1.47-4.53-2.14-6.14-3.75-1.22,1.7,1.31.89,1.58,2.78.79,5.36-3.52,4.77-7.45,4.64,1.72,6.85,3.04,13.91,3.09,21.02,7-.38,4.79,5.85,3,10.11-.97,2.32-4.4,6.51-4.73,7.64-.46,1.57.06,3.61-.2,5.36-.95,6.42-2.45,12.99-6.72,18.01-.1.33,4.33.44,2.82,5.28-1.14,3.66-9.83,7.47-10.54,9.21-.28.69.57,2.37.16,3.9-.63,2.36-4.59,6.34-5.75,10.35s-.4,17.73-4.01,19.48c-6.19,3-10.04-12.43-14.88-7.46-1.99,2.05-1.8,6.34-5.83,9-8.18,5.4-9.58-9.35-11.82-9.85-5.3,1.32-8.24,7.61-14.31,5.05-4.61-1.94-2.78-6.96-2.64-10.35.17-4.3-2.22-12.96-4.04-17.01-.34-.75.06-1.5-1.2-1.24l-5.12,15.3c-.26,4.86,2.91,12.76-4.2,13.74-5.18.71-8.18-4.48-12.89-5.57-2.86,4.87-4.71,14.86-12.43,9.31-3.37-2.43-3.89-9.9-8-9.3-2.92.43-5.88,10.33-11.66,8.57-3.82-1.17-3.18-15.85-4.32-19.8-1.11-3.85-5.36-8.27-5.9-10.21-.46-1.64.74-3.12.46-4.1-.36-1.25-9.31-5.87-10.35-9.51-1.1-3.85,2.77-3.95,2.28-5.92-.19-.77-1.52-2.01-2.01-2.98-2.22-4.45-3.28-9.01-4.01-13.92-.26-1.75.26-3.79-.2-5.36-.24-.83-2.37-3.03-3.07-4.35-2.22-4.21-6.91-13.81,1.34-13.4.06-7.13,1.55-14.11,3.09-21.02-5.53.75-9.82-.92-6.18-6.8-.29.02-.64-.1-.92,0-.85.32-5.14,3.21-5.88,4.02-1.41,1.54-2.7,4.34-3.63,6.27-1.36,2.82-2.52,9.74-6.49,9.37-3.46-.33-3.37-5.83-4.44-6.06-1.67.35-2.65,2.17-4.35,2.46-8.05,1.37-3.92-7.28-5.94-8.55-.81-.51-3.56.3-4.89-1.59-2.73-3.87,2.63-9.03,5.6-11.18-2.67-2.84-6.39-4.93-4.46-9.43,1.28-2.98,4.69-2.93,5.03-3.31.58-.65-1.17-10.79,2.83-16.03,1.02-1.34,5.79-4.84,5.83-5.23.02-.28-1.26-1.55-1.17-3.06.19-3.24,7.75-6.97,10.51-8.4-3.42-5.37,1.08-7.72,5-10.76.83-.64,3.85-1.76,3.04-2.83-.3-.4-7.58-3.37-9.07-4.23-4.43-2.54-8.95-5.48-12.88-8.75-2.52,4.85-5.73,3.22-9.53.87-10.14-6.3-18.98-21.97-23.4-32.87-.66-1.63-2.9-9.65-3.31-9.98-.58-.46-3.14.7-4.53-1.97-1.26-2.42-3.18-11.58-3.44-14.5-.67-7.67.91-15.14,2.47-22.56-1.49.22-3.38-.45-4.01-1.87-1.26-2.84,2-16.76,3.08-20.39.96-3.25,4.88-10.29,5.16-12.21.22-1.5-1.03-2.28-1.07-3.54-.04-1.19,1.6-6.25,2.12-7.73,2.3-6.59,6.31-12.95,10.8-18.27-7.69-2.01-3.8-6.8-.32-10.83,3.7-4.28,8.97-8.4,13.86-11.19-.12-2.73-2.04-2.65-.46-5.72,1.07-2.09,6.67-8.56,8.55-10.61,3.55-3.89,7.54-7.36,11.76-10.5.44-1.74-10.54-6.24-8.72-11.13,1.33-3.57,5.44-2.04,8.4-1.53,1.27-1.27-.69-1.32-1.55-2.14-2.05-1.96-7.8-7.24-8.38-9.62-.62-2.52,1.28-4.32,3.75-4.36,1.03-.02,3.18,1.54,2.8-.29-.34-1.65-4.07-6.42-5.07-8.54-2.73-5.84-5.86-14.96,4.44-10.94-.88-9.46.06-19.82,1.32-29.29,2.4-17.97,9.48-46.48,20.95-60.67,6.03-7.45,10.37-8.65,18.21-2.78,11.62,8.7,25.37,30.13,29.56,44.03.51,1.7,2.09,7.56,2.14,8.95.05,1.58-1.68,2.38-1.58,3.48.09,1.02,3.25,6.7,3.9,8.46,3.42,9.31,6,20.66,6.53,30.57.18,3.42-.76,12.39.05,14.79.17.5.43.79.96.89l9.47,1.97c-.65-2.08.32-4.56,0-6.45-.65-3.79-8.98-11.94-.02-13.98-1.96-6.14-1.52-11.43,6.2-8.01-.4-26.21,6.38-54.45,21.14-76.25C172.72,12.41,183.06-.8,191.89.04c16.49,1.57,28.7,30.05,30.61,44.26.6,4.46.03,10.31.7,14.14.29,1.66,1.9,1.95,2.32,3.24,1.19,3.68,1.84,14.16,2.02,18.38.4,9.51-.71,19.31-1.27,28.78Z"/>
      <path class="cls-3" d="M233.66,418.3c5.4-1.29,7.13,1.72,11.79,2.81-.26-2.46-5.29-11.56-1.46-12.27,1.97-.16,9.88,6.96,10.73,6.09-4.56-13.03-.5-24.04,10.21-8.66.17.09.9-1.39.93-1.54.38-2.53,0-6.52,0-9.28,0-1.05-2.58-4.87-3.46-5.81-1.74-1.87-9.18-5.87-9.47-7.26-.14-.64.66-1.52,1.19-1.77.87-.4,3.54.1,2.78-.94-2.12-2.4-13.89-6.8-14.87-8.64-.8-1.49.12-2.35,1.54-2.82,1.98-.66,3.16.26,4.97.03-2.63-2.1-5.08-4.45-7.84-6.38-1.25-.87-7.15-4.79-8.07-4.97-1.73-.33-4.33,1.1-6.34.53.18,1.19,2.13.88,3.06,1.57,2.16,1.6.5,3.38-1.64,3.86-4.81,1.08-11.58-.3-16.26-1.72.79,1.58,6.61,3.19,4.18,5.42-1.22,1.12-5.17.83-6.89.68-3.45-.29-11-3.05-13.08-2.98-2.06.07-8.64,5.92-12.04,4.91-.23,1.59.12.96.88,1.29,2.46,1.05,5.14,2.2,7.18,3.95,1.18,1.01,2.77,2.17.9,3.42-.81.16-11.08-6.73-14.85-6.84-5.78-.17-14.87,3.1-21.08,3.67-6.72.61-14.8.73-21.49,0-3.98-.43-10.93-2.58-14.29-2.44-3.87.16-14,8.05-14.85,8.07-.55,0-1.06-1.21-.83-2.05.47-1.76,8.22-6.17,10.42-6.6.16-.21-.34-.78-.61-.92-.55-.29-7.87-2.81-8.31-2.78-1.33.09-3.33,1.88-4.96,2.5-7.07,2.7-9.35,1.07-4.05-4.97-8.51.7-16.51-2.3-24.39-4.96l-10.24,7.74c2.42-.29,8.33-.68,6.22,3.13l-14.26,7.69c-.56,2.29,2.11.67,3,1.31.19.6.69,1.39.59,1.99-.26,1.46-8.76,6.14-10.55,8.59-2.72,3.69-3.04,11.13-1.39,15.31,11.04-15.09,14.7-4.43,10.21,8.66.81.84,8.11-5.49,9.89-5.93,5.65-1.41-1.14,11.65-.62,12.12,4.71-1.11,7.32-4.7,12.72-2.51,5.47,2.22-1.27,5.22-2.82,7.46,1.75-.12,5.34-1.97,6.5,0,1.06,1.78-2.59,14.66-2.82,18.23-.16,2.5-.19,6.21.03,8.68.16,1.74,3.22,9.65-.23,8.93-1.12-.24-2.66-3.13-3.31-4.16-.74-1.16-1.01-1.34-.78.16.66,4.19,5.15,7.22,5.89,9.58.74,2.34.09,5.7.35,8.31.45,4.45,2.18,8.97,4.61,12.7,1.23,1.88,7.68,8.12,7.7,9.01.08,3.87-6.46-1.19-8.06-.62,2.15,1.77,4.22,3.68,6.61,5.14,1.36.83,7.71,3.44,7.97,3.8.7.97-.27,2.16,0,3.14.08.3,2.5,5.34,2.74,5.54,1.72,1.45,1.15-3.31,1.27-3.98,1.41-8.28,7.09,3.74,8.63,5.51,4.69,5.38,4.73,0,6.9-3.58,1.2-1.99,3.26-5.52,6.09-3.83,2,1.2,1.42,12.11,2.78,12.08,1.52-.53,2.96-2.23,4-3.42,1.71-1.97,5.54-9.01,7.76-8.92,2.43.1,3.18,5.14,4.08,7.01.34.7,2.47,5.03,3.33,3.49,1.6-2.84,1.89-8.3,3.36-11.48.79-1.71,2.79-3.22,3.1-4.94.37-2.06.23-15.57-.96-16.42-7.86-1.61-17.83-2.36-25.15-5.64-1.61-.72-4.26-1.94-1.94-3.55,11.99,3.73,24.36,7.09,37.08,6.19,9.18-.65,17.93-5.33,26.57-8.04.45.44,1.08.76.92,1.51-.34,1.6-12.33,5.85-14.51,6.52-6.3,1.94-12.87,3.44-19.5,3.07-.26,2.23.63,4.28.67,6.48.05,3.18-1.28,6.64-.65,9.89.26,1.37,2.4,2.91,3.2,4.83,1.16,2.77,1.93,9.64,3.27,11.57.99,1.43,2.89-2.63,3.1-3.1.84-1.85,1.64-7.45,4.33-7.44,2.28,0,8.73,11.62,11.75,13,1.96-2.82-.01-11.76,3.84-12.89,4.41-1.29,6.7,9.57,8,9.84,4.2.9,7.63-9.88,9.89-10.49,3.61-.97,1.71,5.98,3.92,6.74-.07-1.94,2.36-4.19,2.74-5.54.28-.98-.69-2.17,0-3.14.26-.36,6.47-2.92,7.96-3.81,1.1-.66,5.64-3.73,6-4.51.15-.33.12-1.05-.3-.92l-6.11,2.51c-2.56-2.77,3.26-6.03,5.16-8.4,3.15-3.91,5.41-9.27,6.14-14.27.32-2.23-.18-7.37.3-8.93.47-1.52,2.47-2.69,3.36-4.1,1.21-1.91,1.81-4.26,3.19-6.09-1.47-1.22-1.45,1.24-2.18,2.14-.74.9-1.58,1.78-2.53,2.46-3.53-.78-.5-5.28-.23-8.31.23-2.63.21-6.63.03-9.29-.21-3.09-3.64-17.11-2.85-18.26.95-1.39,5.01-.27,6.54.04-2.25-2.42-8.67-6.14-1.9-7.76ZM127.96,474.6c-.62,3.09-12.9-1.45-13.47-6.94-.11-1.09-.16-1.31.8-2.01,2.34,3.27,4.03,4.88,7.74,6.47,1.08.46,5.28.72,4.93,2.48ZM128.28,409.37c-2.64-2.29-4.91-5.59-4.65-9.27h3.09c-3.89-5.18-.09-5.95,4.94-5.56.58,1.96-2.9,2.24-3.09,2.48-.9,1.15,1.28,1.46,1.86,2.13,3.38,3.99,1.44,6.53-3.09,4.05.16,1.67,1.46,2.22,1.82,4.06.15.79.54,2.46-.89,2.12ZM141.56,445.53c-.25,1.94-3.96,9.74-5.89,6.52-1.48-2.48,1.54-9.95,1.56-13-.24-.29-3.95,4.43-6.65,1.71-.57-.58-1.59-4.14-1.33-5.02.27-.93,1.93-1.41,2.42-1.02.15.12.48,3.08.63,3.71,2.68.49,4.15-4.43,6.99-2.52,2.3,1.55-.19,7.52-.19,9.94.15.18,2.77-2.7,2.47-.32ZM181.45,405.66c-1.53,1.64-3.28,5.49-5.25,6.5-.84.43-1.73.03-1.87-.64-.12-.6,6.01-9.98,6.6-10.13,3.42-.88,3.16,6.3,5.14,7.36,3.33-14.27,9.7,8.75,5.87,10.51-1.01.46-1.27-1.05-1.37-1.69-.47-2.91-.54-5.9-1.41-8.81-1.37.49-1.13,2.1-2.13,3.12-3.81,3.91-4.9-3.7-5.59-6.21ZM194.26,467.32c-.79,1.44-5.98,8.06-7.56,7.32-.36-.17-.79-.97-1.22-1.27,2.36-.83,8.25-11.27,8.96-11.44,2.62-.64.28,4.53-.19,5.38ZM228.13,464.09c-.38,1.83-7.8-.26-8.03-1.24-.16-.67.43-1.26,1.02-1.45,1.5-.47,7.41.79,7.01,2.69ZM138.47,290.33c.48-2.43,5.73-3.58,7.91-3.84,7.48-.89,17.88,1.1,10.91,10.29-4.14,5.45-7.93,6.47-13.81,2.79-3.32-2.08-5.84-4.96-5-9.23ZM142.89,113.13c-.23-.18-2.16-5.27-1.94-5.52,12.01,7.93,2.07-8.06,3.09-9.28,2.31,1.35,5.12,5.44,7.33,2.06-1.62-19.78,2.21-41.2,9.68-59.56,4.27-10.51,15.57-30.91,26.06-35.78,9.96-4.62,20.46,10.68,24.44,18.04,3.93,7.26,6.34,15.38,7.31,23.61.31,2.6.38,15.56,1.41,16.26.46.31,1.6-.21,1.72.48,1.69,16.97,2.15,34.36-.67,51.24.08.85,1.15,2.36,2.1,2.15l3.49-2.73c.34,3.31-5.92,8.38-6.12,10.61-.2,2.2,3.63,1.9,4.88,1.45-.43,1.74-3.89,2.78-4.26,4.09-.73,2.64,3.15,1.49,2.4,3-.15.3-2.56,3.14-2.87,3.36-1.85,1.28-8.76-2.51-11.35-2.43,2.46-8.56,2.46-17.47,3.1-26.27,1.3-17.86,3.55-40.93.33-58.46-2.53-13.76-14.98-31.12-28.8-17.01-15.52,15.84-23.44,50.78-24.7,72.38-.26,4.51.28,9.12.02,13.63-.07,1.23-.68,7.18-.95,7.71-.45.88-2.41,2.06-3.39,1.57-1.53-.76-5.93-6.34-6.84-8.05-.83-1.58-1.72-5.5-2.61-6.37-.95-.94-2.58.02-2.85-.19ZM195.36,125.54c-5.81-1.96-11.96-1.32-17.93-.62.45-5.84-.61-12.51,0-18.24.49-4.58,3.37-11.71,6.49-15.16,4.26-4.72,9.68-3.95,11.3,2.32,2.43,9.39-.2,22.03.14,31.7ZM98.91,124.62c-.13,2.38-1.55,4.56-.62,7.11-2.01.11-4.39.33-6.33.78-2.31.54-7.24,2.72-8.95,2.83-.78.05-1.1-.25-1.31-.95-.63-2.04-1.23-8.01-1.37-10.37-.49-8.1-.24-19.36,3.86-26.5,2.62-4.56,6.26-7.92,10.39-2.59,4.61,5.94,4.75,22.27,4.34,29.68ZM53.49,121.18c-1.17-1.63-7.92-13.93-7.14-14.8,1.45.82,2.93,2.25,4.69,2.46,4.52.54,2.17-3.86,2.08-6.46-.76-24.46,4.42-53.74,15.26-75.69,2.2-4.46,8.29-16.56,14.11-16.15,4.31.3,15.05,13.02,17.9,16.75,8.03,10.49,14.13,22.53,17.08,35.47-.01.72-3.06-.39-2.38,2.97,9.55,17.43,12.25,37.01,11.64,56.73-6.92-.29-5.66,3.04-1.24,6.18l-9.2-3.17c-1.76-16.94-3.11-34.03-6.44-50.76-1.95-9.79-5.82-28.21-13.75-34.48-14.9-11.79-21.61,7.66-24.86,19.02-3.18,11.14-5.23,24.69-5.77,36.28-.75,16.18.06,33.3,1.31,49.41l-8.39,4.53-8.97-6.92c.46-1.01,1.44.31,1.54.31,2.29,0,8.22.46,9.89,0,.28-.08,1.34-1.24,1.43-1.64.42-1.93-5.79-5.35-7.31-6.7-2.38-2.12-4.44-4.65-6.79-6.82-.15-1.71.37-.5,1.07-.45,1.85.12,5.6.55,7.18.06,3.31-1.03-2.1-4.93-2.96-6.12ZM290.08,238.9c-.64-1.54-5.04-8.56-3.83-9.47l2.48-.31c-2.08-3.96-12.56-12.25-13.29-15.72-.53-2.51,1.71-2.04,3.43-1.63.66.16,5.18,2.69,4.29.66-2.78-2.77-5.57-6.97-8.34-9.59-1.09-1.03-7.65-5.49-7.76-5.96-1.01-4.38,5.19-2.16,7.45-2.08.26-.24-2.43-4.86-2.83-5.51-5.07-8.28-14.5-18.4-22.58-23.8-2.43-1.63-10.61-5.24-11.74-6.81-.49-.68-.9-2.62-.58-2.82,1.16-.72,5.93-.63,7.42,0-4.91-4.39-11.53-7.72-17.8-9.71-2.79-.89-14.69-2.85-15.58-3.59-2.56-2.12,2.42-4.03,4.32-3.39.18-.14-.32-.77-.61-.93-1.71-.91-10.4-2.75-12.86-3.21-5.78-1.1-11.64-1.34-17.43-2.36l-1.13-1.21c.73-2.89,4.55-2.4,6.06-4.64-3.8-.06-8.2.41-11.88,1.41-1.9.52-8.8,4.22-9.75,2.89-.36-2.42,1.26-4.29,2.46-6.16-.41-.35-5.26,1.18-6.18,1.55-6.53,2.61-6.65,7.98-13.32.93l-5.85-8.67c0,1.49-.14,3,.14,4.49.31,1.66,4.13,7.43.79,7.71-.5.04-7.23-3.8-9.1-4.35-3.47-1.02-6.92-.87-10.39-1.66,1.71,2.23,4.18,3.14,5.68,5.75.8,1.4,1.97,3.35-.43,3.56-1.55.13-8.55-3.88-10.83-4.66-5.95-2.04-12.34-3-18.54-1.55l8.34,4.32c1.28,1.05,2.26,1.86.64,3.14-1.14.9-4.32-.58-6.18-.69-10.34-.64-17.54,1.91-26.92,5.59.56,1.42,3.22.9,4.04,2.45.42.79.56,1.7-.31,2.2-.96.55-8.74,1.2-11.15,1.84-9.34,2.49-19.89,11.69-26.29,18.85-2.23,2.49-3.88,5.56-6.48,7.75-.15,1.71.37.5,1.07.45,1.75-.12,5.68-1.14,5.6,1.51-.06,2.05-8.24,5.91-10.33,7.36-5.02,3.49-9.99,8.08-13.65,12.94l8.04-.31c.5,3.14-2.89,4.62-4.65,6.79-5.47,6.74-10.17,14.96-12.05,23.5h3.7c.71.99-4.43,8.22-5.25,9.9-3.5,7.25-5.45,16.1-5.88,24.11l5.73-5.71c1.11-.86,2.21-.37,2.33,1.07.15,1.71-4.05,10.27-4.8,13.17-1.86,7.17-2.44,14.66-1.34,22.02.12.77,1.54,8.3,2.4,7.18-.38-1.15.42-2.47,1.57-2.33,2,.24,4.36,11.43,5.21,13.8,4.73,13.14,13.1,27.91,25.08,35.52.24-2.81-2.36-5-1.55-8.04,1.39-1.49,8.06,5.63,9.59,6.79,3.57,2.71,8.91,5.95,12.87,8.16,11.42,6.37,24.87,12.12,38.13,11.3,2.14,1.53,1.12,3.44,0,5.28.66.6,5.76-3.21,7.68-3.08,1.2.08,6.88,2.79,9.01,3.4,19.69,5.61,55.77,4.89,74.24-4.29,1.38-.69,2.79-2.51,4.12-2.72,2.72-.43,11.81,4.09,15.63,2.98l-4.63-4.33c-.61-.95-.5-2.71.69-3.05,1.42-.4,13.98,4.24,16.93,3.66-.6-1.89-6.61-2.13-4.37-4.67,1.44-1.64,5-.65,7.15-.9,13.06-1.53,25.21-9.25,35.24-17.32,3.47-2.79,4.85-6.75,8.67-.61.59.02,2.18-6.07,2.67-7.21.7-1.63,3.48-7.32,4.38-8.47.47-.6,1.99-.29,3.21-1.26,4.32-3.43,11.71-18.64,13.56-24.16,5.43-16.21,2.93-41.27-3.61-57.01ZM268.98,282.33c-3.18,56.93-54.16,75.02-103.06,80.59-45.34,5.16-118.84-9.98-132.25-61.14-3.71-14.17-2.2-29.28,1.6-43.22,2.03-.62,2.83.85,4.27,1.8-.44-2.69-3.79-15.28-1.8-16.64,1.48-1,4.16,1.11,3.66,3.04.14.17.79-.33.93-.61.72-1.49,1.35-5.58,2.14-7.75.62-1.71,3.45-9.1,4.3-9.93,1.12-1.1,2.24-.59,2.98-1.04.46-.29,5.21-7.47,6.36-8.79,8.97-10.31,28.57-23.45,42.42-24.36,5.09-.34,10.21,1.23,15.07,2.39-.98-1.4-9.89-6.78-4.62-7.45,2.77-.35,10.78,4.83,12.98,6.82.76.69.58,1.91,1.52,1.87.63-2.73-2.71-7.35-.35-9.33,3.03-2.55,6.65,6.56,7.47,8.71,2.43-1.38,3.72-12,4.98-12.36,3.57-1.01,4.15,8.42,4.3,10.5,3.48-4.79,7.31-11.63,13.91-11.75l-1.85,8.04c4.44-3.93,16.96-7.69,22.44-6.06,5.15,1.54-3.94,5.46-2.65,6.68,2.06-1.12,4.34-1.88,6.64-2.32,4.39-.84,12.15-1.65,16.54-1.39,1.71.1,7.93.35,6.21,3.11-.61.98-2.71.64-2.81,1.82,11.66,1.28,22.63,6.43,31.47,14.01,1.96,1.68,4.72,4.07,5.64,6.4,1.04.14.57-1.52,1.6-1.82,2.15-.63,5.23,4.3,6.31,5.96,3.68,5.65,6.41,12.06,7.54,18.74,1.27-.33,2.04-4.52,2.54-4.86,2.81-1.94,3.49,3.41,3.63,5.18.31,3.77-.39,7.48-1.03,11.17,10.49,6.32,11.58,22.89,10.96,34Z"/>
      <path class="cls-1" d="M215.77,508.93c-1.64,4.39-5.02,8.23-5.9,12.95-.54,2.9-.07,5.55-.28,8.37-.08,1.09-.74,6.5-1.54,6.48-3.59-3.94-9.28-13.51-15.17-7.12-1.91,2.08-4.78,13.22-8.28,7.69-2.54-4-1.86-10.93-9.04-8.93-2.99.83-12.1,10.3-11.75,1.9.34-8.11,2.33-8.93,5.7-15.37.56-1.07.89-2.33,1.13-3.51.42-.32.87-.07,1.28.39,1.8,2.01,8.54,14.97,12.65,10.75,1.72-1.77,2.16-9.14,2.15-11.76,1.45-.31.99.19,1.38.79,2.72,4.24,4.18,13.18,11.01,6.96,1.41-1.29,3.99-6.29,4.31-6.52,1.84-1.31.78,3.58,2.14,4.95,4.31,4.36,5.95-9.81,10.21-8.05ZM143.54,518.39c-1.24-2.3-2.15-4.76-3.52-6.98-1.84,0-14.57,27.05-15.77-.63-3.47,1.81-3.69,10.12-8.29,9.9-3.9-.18-6.5-6.04-8.71-8.66-4.1,13.19-6.03.65-9.28-2.47-.64-.61-2.42-.95-2.77-.62-.43.39,4.75,7.64,4.81,9.1.54,2.36,1.76,5.59,1.99,7.9.28,2.81,0,6.35,0,9.28,0,.09.75,1.62.92,1.54,4.21-3.94,9.15-13.62,15.49-6.83,1.47,1.57,5,11.93,7.74,8.25,2.79-3.74,2.25-12.76,9.66-9.58,3.17,1.36,11.12,8.97,11.37,2.29.05-1.33-.48-7.47-.79-8.54-.23-.79-2.19-2.74-2.85-3.96ZM54.69,416.17c-2.71-2.79,3.58-11.76,0-15.44-4.04,2.13-5.33,6.95-8.69,9.86-1.32.29-1.49-2.09-2.53-2.41-1.61-.48-3.7,1.04-3.06,3.07,1.25,3.92,7.98,4.28,10.83,6.52.76.6,4.96,5.74,4.98,6.14.05.93-1.38.87-2.29.45-2.49-1.16-4.34-6.52-7.92-6.12-.65.07-8.12,7.52-7.09,8.45,5.49-.71,6.64,4.15,6.18,8.66.85.94,5.64-5.69,8.94-1.83,1.06,1.24.77,3.61,2.18,4.3.48-2.1,1.32-4.16,2.26-6.09,1-2.06,4.71-7.35,5.03-8.58.4-1.57-.09-3.2.19-4.76.4-2.23,1.78-4.22,1.8-6.54-.4-.48-7.29,7.95-10.81,4.32ZM255.35,424.83c-.7-.73,3.61-6.43,4.37-7.06,3.07-2.57,12.01-2.53,10.82-8.43-3.46-2.32-3.07-.38-5.59,1.27-3.03-3.22-4.5-7.77-8.67-9.88-3.51,3.53,2.65,12.32.37,15.19-3.16,3.98-10.77-4.57-11.18-4.08.34,3.02,1.88,5.41,2.31,8.51.13.96-.52,1.89-.34,2.78.22,1.11,2.21,2.82,2.86,3.96,1.83,3.18,3.87,7.08,4.44,10.71,2.21.32.64-2.53,2.18-4.31,2.8-3.24,6.09.78,8.94,1.83-.25-4.43.67-9.44,6.19-8.66,1.38-1.15-5.94-7.06-6.56-8.58-5.02.09-5.56,5.99-10.14,6.72ZM207.11,132.96c.33-4.26,1.38-8.44,1.86-12.68.78-6.98.83-14.03,1.24-21.02.95-16.22,4.63-51.63-6.2-64.3-6.44-7.54-13.23-6.95-19.47.29-10.83,12.55-18.13,36.09-20.62,52.34-1.84,11.97-1.74,24.05-2.55,36.09,4.24-1,8.6-3.19,12.98-1.85v-15.15c0-1.97,2.08-8.54,2.98-10.62,2.81-6.5,9.86-14.92,17.12-8.86,2.65,2.21,3.78,7.45,4.04,10.8.82,10.81-.53,22.4-1.88,33.11l10.51,1.86ZM101.37,124.92c3.94-1.37,7.7-1.44,11.75-.62-1.42-15.74-2.83-31.57-5.75-47.11-1.93-10.28-5.71-31.29-15.06-36.89-7.87-4.71-12.4,2.31-15.16,8.75-5.5,12.82-8.47,31.91-9.16,45.87-.78,15.9.07,32.7,1.24,48.54l4.33-.62-1.68-2.15c-.31-2.21,5.8-2.95,6.98-4.65.44-.85-1.5-12.22-1.61-14.5-.29-5.99.13-15.32,2.03-20.9,2.15-6.31,9.43-16.78,16.2-9.08,3.54,4.02,5.5,12.34,5.91,17.59.39,5.1-.29,10.62,0,15.77ZM264.21,262.3c4.92,19.84-1.26,45.54-13.56,61.68-20.46,26.86-78.05,37.74-110.04,36.56-38-1.4-91.26-16.99-103.87-57.53-4.42-14.21-2.01-26.45-.3-40.82.83-.94,4.12,4.6,6.07,1.42,1.74-2.84-2.35-9.69-1.74-13.17,4.4,4.22,4.18-4.77,5.12-8.17.98-3.55,2.67-6.82,3.54-10.39.2-.23,1.47.61,2.09.5.88-.15,5.04-7.97,6.32-9.71,7.46-10.14,18.18-17.19,29.11-22.22,10.29-4.74,16.61-4.93,27.55-1.79,1.89.54,3.4,2.16,5.64,1.73.58-.14.85-1.44.73-1.96-.29-1.21-2.03-1.9-1.87-3.03,1.88.26,5.72,5.95,6.78,6.03,3.24.26,2.23-6.49,1.56-8.5,2.41,1.05,2.27,8.91,5.2,7.99,1.42-.45,5.62-8.37,5.31-10.46,1.03,0,1.19,2.07,1.23,2.77.12,2.01-.58,4.37-.32,5.9.43,2.55,2.31.88,3.4-.33,3.03-3.38,4.98-8.58,8.98-11.43.64,1.57-1.82,8.15.08,8.68,2.34.66,2.18-1.32,3.63-2.5,4.9-4.02,11.28-5.12,17.33-6.17.84,1.85-5.83,6.86-2.39,7.96,2.13.68,4.79-1.51,7-2.1,1.87-.5,8.77-2.15,10.22-2.15h10.2c-.31,1.14-2.17,1.24-2.8,2.46-1.47,2.87,6.2,2.35,7.37,2.56,12.86,2.24,23.89,7.75,32.52,17.57.9,1.02,6.04,9.32,7.42,7.08.38-.62-.8-2.33,1.24-1.84,1.05,3.44,3.43,6.56,4.64,9.9.7,1.95,2.37,11.32,2.87,11.66,2.36,1.61,3.94-2.06,5.49-3.02.35,2.93-1.97,10.39-1.53,12.44.58,2.7,3.28,1.16,4.98,2.35,1.67,1.17,4.25,7.84,4.8,10.04ZM164.45,239.64c-.44,2.13,6.87,4.65,8.66,4.63-1.09,3.8-3,7.28-4.02,11.13-4.22,15.92.25,36.39,12.27,48.02,8.45,8.18,21.03,10.83,30.71,3,16-12.92,15.59-40.07,6.06-56.78-2.76-4.84-6.34-8.71-10.38-12.49,1.95-1.49,4.06-2.98,5.45-5.05.5-.74,2.95-4.75,1.02-5.15-1.51-.31-2.57,3.06-3.39,4.02-7.69,8.95-28.38,13.8-39.45,10.39-1.76-.54-3.71-2.06-5.04-2.39-.81-.2-1.71-.18-1.88.67ZM146.68,304.38c5.66,1.77,11.87-3.92,14.68-8.47,7.57-12.24-10.09-13.05-18.09-11.91-15.9,2.26-6.89,17.17,3.41,20.38ZM89.62,237.76c-16.67,13.61-21.71,40.74-11.45,59.69,10.46,19.31,31.19,16.84,42.98.29,8.5-11.93,11.1-29.07,7.25-43.1-1.04-3.79-2.85-6.77-4.15-10.38,1.92.24,8.67-2.16,8.68-4.01-.33-2.87-3.78.27-5.87.95-10.01,3.27-32.04-1.02-39.3-9-1.69-1.86-2.15-5.62-4.94-5.25-.44,4.98,4.87,7.1,6.8,10.81ZM263.1,280.43l-11.15-19.39.3-7.5c-1.15-.03-2.59-.27-3,1.01-.55,1.72-.38,7.27-.77,9.74-3.15,19.55-15.32,38.71-30.56,51.07-55.53,45.06-149.77,25.06-177.47-42.02-.26-.72-1.96-.82-2.15-.63-1.15,1.19,3.86,10.4,4.84,12.16,2.66,4.81,5.91,9.26,9.08,13.73-.08,3.49-4.79,15.56-3.13,18.05,1.38,2.08,15.3-1.55,18.28-1.28.59,4.76.84,11.08,1.99,15.63,1,3.96,3.72,2.66,6.8,2.12,4.52-.79,8.91-2.74,13.5-3.25.91.54,7.17,13.47,8.98,15.76,1.48,1.87,2.2,2.33,4.62,1.61,3.09-.92,14.88-7.34,16.88-6.99,3.97,1.84,12.7,10.19,16.33,10.88,3.27.62,9.46-7.03,12.83-8.34,4.37,1.34,13.02,8.9,17.26,8.44,3.89-.42,14.06-11.77,18.06-14.1,3.64.67,14.52,6.37,17.55,4.53,1.98-1.21,5.64-14.29,8.02-16.75.7-.44,13.38,2.19,15.77,2.26,1.19.03,2.69.1,3.46-.92,1.8-2.37,1.99-18.52,3.1-19.47,2.97-.45,17.63-.1,18.82-1.89,1.65-2.49-4.67-15.52-4.66-19.19,4.44-.81,9.13-.96,13.48-2.31,1.93-.6,2.93-.6,2.94-2.96Z"/>
      <path class="cls-2" d="M180.54,299.59c11.52,13.77,28.91,12.87,37.32-3.46,8-15.53,4.9-38.82-6.72-51.88-1.29-1.45-4.8-5.12-6.66-4.85-6.62,3.21-13.95,5.17-21.25,6.02-7.06.83-7.05-1.87-10.14,5.94-6.02,15.19-3.08,35.64,7.45,48.23ZM193.36,245.04c16.36-2.14,24.58,23.15,23.64,36.01-.57,7.79-5.64,21.75-14.56,23.16-27.6,4.36-34.47-55.85-9.08-59.17ZM187.12,261.62c0-4.85,3.93-8.78,8.78-8.78s8.78,3.93,8.78,8.78-3.93,8.78-8.78,8.78-8.78-3.93-8.78-8.78ZM94.53,262.94c0-4.84,3.92-8.77,8.77-8.77s8.77,3.92,8.77,8.77-3.92,8.77-8.77,8.77-8.77-3.92-8.77-8.77ZM189.8,130.48l4.95-2.46c-.56,3.51-1.85,2.4-4.95,2.46ZM188.82,335.11l17.67-7.98-5.64,12.91c-1.63-.12-12.48-3.13-12.91-3.64-.36-.44-.11-1.54.88-1.28ZM93.34,330.84c7.23,3.65,15.05,6.05,22.87,8.05-.06.87-.94.96-1.52,1.25-3.94,2-8.83,3.63-12.92,5.46-1.07-.2-9.12-13.94-8.42-14.76ZM229.99,308.58l-2.47,16.69-14.84-1.86c-.36-1.43.27-1.02.78-1.41,5.29-4.11,9.77-8.63,14.67-12.51.62-.49.79-1.2,1.86-.92ZM243.9,287.56l5.27,15.74c0,.17-2.06.94-2.18.94h-13.91l10.82-16.68ZM125.49,340.73c6.48,1.25,13.15,1.84,19.78,1.86l-8.24,6.71c-2.88-2.12-6.08-3.84-9.02-5.85-.9-.62-2.82-1.44-2.52-2.72ZM153.94,342.89l25.34-4.63-3.69,4.03c-1.3,1.12-8.19,6.77-9.13,7-1.88.45-10.34-5.14-12.52-6.4ZM251.33,265.92l8.96,15.44c-.41.55-11.98,2.2-13.56,2.23-.57.01-1.24-.23-1.26-.67-.02-.3,2.12-4.42,2.48-5.55.43-1.34,2.78-11.48,3.38-11.45ZM69.84,316.62l17.31,11.74c-2.24-.01-14.51,4.13-15.46,3.1l-1.85-14.84ZM87.2,305.12c12.95,9.89,27.16.45,34.06-11.59,7.02-12.24,8.56-28.81,3.46-42.01-.39-1-2.37-5.38-2.94-5.72-10.24-.22-19.9-2.39-29.29-6.36-19.37,12.07-23.85,51.51-5.3,65.68ZM94.37,248.7c9.81-7.42,19.85-3.09,24.43,7.51,5.98,13.84,2.7,34.93-9.38,44.64-6,4.82-13.93,4.95-19.58-.53-12.22-11.85-8.78-41.56,4.53-51.62ZM65.5,313.52l-14.22,1.86c-.47-.47,2.35-12.29,2.77-12.99.72-1.2.96-.11,1.45.42,2.97,3.19,5.72,6.04,8.95,8.98.6.55,1.33.55,1.04,1.74Z"/>
    </g>
  </g>
</svg>